<svg width="316" height="289" viewBox="0 0 316 289" fill="none" xmlns="http://www.w3.org/2000/svg">
<path d="M316 12.5C316 165.207 192.207 289 39.5 289C-113.207 289 -237 165.207 -237 12.5C-237 -140.207 -113.207 -264 39.5 -264C192.207 -264 316 -140.207 316 12.5ZM-192.005 12.5C-192.005 140.357 -88.3567 244.005 39.5 244.005C167.357 244.005 271.005 140.357 271.005 12.5C271.005 -115.357 167.357 -219.005 39.5 -219.005C-88.3567 -219.005 -192.005 -115.357 -192.005 12.5Z" fill="#34C6CD"/>
<path d="M189 12.5C189 95.0666 122.067 162 39.5 162C-43.0666 162 -110 95.0666 -110 12.5C-110 -70.0666 -43.0666 -137 39.5 -137C122.067 -137 189 -70.0666 189 12.5ZM-3.51913 12.5C-3.51913 36.2588 15.7412 55.5191 39.5 55.5191C63.2588 55.5191 82.5191 36.2588 82.5191 12.5C82.5191 -11.2588 63.2588 -30.5191 39.5 -30.5191C15.7412 -30.5191 -3.51913 -11.2588 -3.51913 12.5Z" fill="#C7F66F"/>
</svg>
