<svg width="30" height="30" viewBox="0 0 30 30" fill="none" xmlns="http://www.w3.org/2000/svg">
<rect width="30" height="30" rx="15" fill="#34C6CD"/>
<mask id="path-2-outside-1_227_172" maskUnits="userSpaceOnUse" x="8" y="5" width="13" height="20" fill="black">
<rect fill="white" x="8" y="5" width="13" height="20"/>
<path d="M13.1729 18.2969V18.0937C13.1781 17.151 13.2666 16.401 13.4385 15.8437C13.6156 15.2865 13.8656 14.8385 14.1885 14.5C14.5114 14.1562 14.9046 13.8411 15.3682 13.5547C15.6859 13.3568 15.9697 13.1406 16.2197 12.9062C16.4749 12.6667 16.6755 12.401 16.8213 12.1094C16.9671 11.8125 17.04 11.4818 17.04 11.1172C17.04 10.7057 16.9437 10.349 16.751 10.0469C16.5583 9.74479 16.2979 9.51042 15.9697 9.34375C15.6468 9.17708 15.2848 9.09375 14.8838 9.09375C14.514 9.09375 14.1624 9.17448 13.8291 9.33594C13.501 9.49219 13.2275 9.73177 13.0088 10.0547C12.7952 10.3724 12.6755 10.776 12.6494 11.2656H9.86816C9.89421 10.276 10.1338 9.44792 10.5869 8.78125C11.0452 8.11458 11.6494 7.61458 12.3994 7.28125C13.1546 6.94792 13.988 6.78125 14.8994 6.78125C15.8942 6.78125 16.7692 6.95573 17.5244 7.30469C18.2848 7.65365 18.876 8.15104 19.2979 8.79687C19.7249 9.4375 19.9385 10.1979 19.9385 11.0781C19.9385 11.6719 19.8421 12.2031 19.6494 12.6719C19.4619 13.1406 19.1937 13.5573 18.8447 13.9219C18.4958 14.2865 18.0817 14.612 17.6025 14.8984C17.1807 15.1589 16.8343 15.4297 16.5635 15.7109C16.2979 15.9922 16.0999 16.3229 15.9697 16.7031C15.8447 17.0781 15.7796 17.5417 15.7744 18.0937V18.2969H13.1729ZM14.5322 23.1719C14.0635 23.1719 13.6598 23.0052 13.3213 22.6719C12.9827 22.3385 12.8135 21.9323 12.8135 21.4531C12.8135 20.9844 12.9827 20.5833 13.3213 20.25C13.6598 19.9167 14.0635 19.75 14.5322 19.75C14.9958 19.75 15.3968 19.9167 15.7354 20.25C16.0791 20.5833 16.251 20.9844 16.251 21.4531C16.251 21.7708 16.1702 22.0599 16.0088 22.3203C15.8525 22.5807 15.6442 22.7891 15.3838 22.9453C15.1286 23.0964 14.8447 23.1719 14.5322 23.1719Z"/>
</mask>
<path d="M13.1729 18.2969V18.0937C13.1781 17.151 13.2666 16.401 13.4385 15.8437C13.6156 15.2865 13.8656 14.8385 14.1885 14.5C14.5114 14.1562 14.9046 13.8411 15.3682 13.5547C15.6859 13.3568 15.9697 13.1406 16.2197 12.9062C16.4749 12.6667 16.6755 12.401 16.8213 12.1094C16.9671 11.8125 17.04 11.4818 17.04 11.1172C17.04 10.7057 16.9437 10.349 16.751 10.0469C16.5583 9.74479 16.2979 9.51042 15.9697 9.34375C15.6468 9.17708 15.2848 9.09375 14.8838 9.09375C14.514 9.09375 14.1624 9.17448 13.8291 9.33594C13.501 9.49219 13.2275 9.73177 13.0088 10.0547C12.7952 10.3724 12.6755 10.776 12.6494 11.2656H9.86816C9.89421 10.276 10.1338 9.44792 10.5869 8.78125C11.0452 8.11458 11.6494 7.61458 12.3994 7.28125C13.1546 6.94792 13.988 6.78125 14.8994 6.78125C15.8942 6.78125 16.7692 6.95573 17.5244 7.30469C18.2848 7.65365 18.876 8.15104 19.2979 8.79687C19.7249 9.4375 19.9385 10.1979 19.9385 11.0781C19.9385 11.6719 19.8421 12.2031 19.6494 12.6719C19.4619 13.1406 19.1937 13.5573 18.8447 13.9219C18.4958 14.2865 18.0817 14.612 17.6025 14.8984C17.1807 15.1589 16.8343 15.4297 16.5635 15.7109C16.2979 15.9922 16.0999 16.3229 15.9697 16.7031C15.8447 17.0781 15.7796 17.5417 15.7744 18.0937V18.2969H13.1729ZM14.5322 23.1719C14.0635 23.1719 13.6598 23.0052 13.3213 22.6719C12.9827 22.3385 12.8135 21.9323 12.8135 21.4531C12.8135 20.9844 12.9827 20.5833 13.3213 20.25C13.6598 19.9167 14.0635 19.75 14.5322 19.75C14.9958 19.75 15.3968 19.9167 15.7354 20.25C16.0791 20.5833 16.251 20.9844 16.251 21.4531C16.251 21.7708 16.1702 22.0599 16.0088 22.3203C15.8525 22.5807 15.6442 22.7891 15.3838 22.9453C15.1286 23.0964 14.8447 23.1719 14.5322 23.1719Z" fill="white"/>
<path d="M13.1729 18.2969H12.1729V19.2969H13.1729V18.2969ZM13.1729 18.0938L12.1729 18.0882V18.0938H13.1729ZM13.4385 15.8438L12.4854 15.5409L12.4829 15.549L13.4385 15.8438ZM14.1885 14.5L14.9121 15.1902L14.9173 15.1847L14.1885 14.5ZM15.3682 13.5547L15.8939 14.4054L15.8969 14.4035L15.3682 13.5547ZM16.2197 12.9062L16.9037 13.6358L16.9042 13.6353L16.2197 12.9062ZM16.8213 12.1094L17.7157 12.5566L17.7188 12.5503L16.8213 12.1094ZM16.751 10.0469L17.594 9.50906L16.751 10.0469ZM15.9697 9.34375L15.5111 10.2324L15.5169 10.2353L15.9697 9.34375ZM13.8291 9.33594L14.259 10.2388L14.265 10.2359L13.8291 9.33594ZM13.0088 10.0547L12.1809 9.49384L12.1788 9.49685L13.0088 10.0547ZM12.6494 11.2656V12.2656H13.5976L13.648 11.3187L12.6494 11.2656ZM9.86816 11.2656L8.86851 11.2393L8.8415 12.2656H9.86816V11.2656ZM10.5869 8.78125L9.76286 8.21471L9.75987 8.21912L10.5869 8.78125ZM12.3994 7.28125L11.9956 6.3664L11.9933 6.36744L12.3994 7.28125ZM17.5244 7.30469L17.105 8.21247L17.1073 8.21356L17.5244 7.30469ZM19.2979 8.79687L18.4606 9.34378L18.4658 9.35157L19.2979 8.79687ZM19.6494 12.6719L18.7245 12.2916L18.7209 12.3005L19.6494 12.6719ZM18.8447 13.9219L18.1223 13.2304L18.1223 13.2304L18.8447 13.9219ZM17.6025 14.8984L17.0894 14.0401L17.0833 14.0438L17.0773 14.0475L17.6025 14.8984ZM16.5635 15.7109L15.8431 15.0173L15.8365 15.0243L16.5635 15.7109ZM15.9697 16.7031L15.0236 16.3791L15.021 16.3869L15.9697 16.7031ZM15.7744 18.0938L14.7744 18.0843V18.0938H15.7744ZM15.7744 18.2969V19.2969H16.7744V18.2969H15.7744ZM13.3213 22.6719L14.0229 21.9593H14.0229L13.3213 22.6719ZM13.3213 20.25L14.0229 20.9626H14.0229L13.3213 20.25ZM15.7354 20.25L15.0337 20.9626L15.0392 20.9679L15.7354 20.25ZM16.0088 22.3203L15.1589 21.7934L15.155 21.7996L15.1513 21.8058L16.0088 22.3203ZM15.3838 22.9453L15.8931 23.8059L15.8983 23.8028L15.3838 22.9453ZM14.1729 18.2969V18.0938H12.1729V18.2969H14.1729ZM14.1728 18.0993C14.1778 17.2022 14.2633 16.5625 14.3941 16.1385L12.4829 15.549C12.2699 16.2396 12.1783 17.0999 12.1729 18.0882L14.1728 18.0993ZM14.3915 16.1466C14.5338 15.6989 14.717 15.3948 14.9121 15.1902L13.4649 13.8098C13.0141 14.2823 12.6973 14.874 12.4854 15.5409L14.3915 16.1466ZM14.9173 15.1847C15.1716 14.914 15.4937 14.6526 15.8939 14.4054L14.8425 12.704C14.3155 13.0297 13.8511 13.3985 13.4596 13.8153L14.9173 15.1847ZM15.8969 14.4035C16.2651 14.1741 16.6018 13.9188 16.9037 13.6358L15.5358 12.1767C15.3376 12.3625 15.1067 12.5394 14.8394 12.7059L15.8969 14.4035ZM16.9042 13.6353C17.2391 13.3209 17.5133 12.9614 17.7157 12.5566L15.9269 11.6622C15.8376 11.8407 15.7108 12.0124 15.5353 12.1772L16.9042 13.6353ZM17.7188 12.5503C17.9387 12.1027 18.04 11.6188 18.04 11.1172H16.04C16.04 11.3448 15.9955 11.5223 15.9237 11.6685L17.7188 12.5503ZM18.04 11.1172C18.04 10.5441 17.9038 9.99457 17.594 9.50906L15.9079 10.5847C15.9836 10.7033 16.04 10.8674 16.04 11.1172H18.04ZM17.594 9.50906C17.3025 9.05208 16.9055 8.69747 16.4226 8.45217L15.5169 10.2353C15.6902 10.3234 15.814 10.4375 15.9079 10.5847L17.594 9.50906ZM16.4284 8.45513C15.9494 8.20793 15.4276 8.09375 14.8838 8.09375V10.0937C15.1421 10.0937 15.3442 10.1462 15.5111 10.2324L16.4284 8.45513ZM14.8838 8.09375C14.3628 8.09375 13.8622 8.20878 13.3932 8.43596L14.265 10.2359C14.4627 10.1402 14.6652 10.0937 14.8838 10.0937V8.09375ZM13.3992 8.43308C12.8985 8.67147 12.4919 9.0347 12.1809 9.49384L13.8367 10.6155C13.9632 10.4288 14.1034 10.3129 14.259 10.2388L13.3992 8.43308ZM12.1788 9.49685C11.8399 10.0011 11.6838 10.5923 11.6508 11.2125L13.648 11.3187C13.6671 10.9598 13.7506 10.7437 13.8387 10.6125L12.1788 9.49685ZM12.6494 10.2656H9.86816V12.2656H12.6494V10.2656ZM10.8678 11.2919C10.89 10.45 11.0907 9.81893 11.414 9.34338L9.75987 8.21912C9.17684 9.0769 8.89844 10.1021 8.86851 11.2393L10.8678 11.2919ZM11.411 9.34778C11.7631 8.83553 12.2217 8.45457 12.8056 8.19506L11.9933 6.36744C11.0772 6.7746 10.3274 7.39363 9.76287 8.21472L11.411 9.34778ZM12.8032 8.1961C13.4185 7.92451 14.1124 7.78125 14.8994 7.78125V5.78125C13.8635 5.78125 12.8907 5.97132 11.9956 6.3664L12.8032 8.1961ZM14.8994 7.78125C15.7773 7.78125 16.5044 7.93498 17.105 8.21246L17.9439 6.39691C17.034 5.97647 16.0111 5.78125 14.8994 5.78125V7.78125ZM17.1073 8.21356C17.7114 8.49079 18.1506 8.86911 18.4606 9.34376L20.1351 8.24999C19.6014 7.43297 18.8582 6.8165 17.9415 6.39582L17.1073 8.21356ZM18.4658 9.35157C18.7683 9.80527 18.9385 10.3662 18.9385 11.0781H20.9385C20.9385 10.0296 20.6816 9.06973 20.1299 8.24217L18.4658 9.35157ZM18.9385 11.0781C18.9385 11.5635 18.8599 11.9624 18.7245 12.2916L20.5743 13.0521C20.8244 12.4439 20.9385 11.7803 20.9385 11.0781H18.9385ZM18.7209 12.3005C18.581 12.6504 18.3827 12.9584 18.1223 13.2304L19.5671 14.6133C20.0047 14.1562 20.3429 13.6309 20.5779 13.0433L18.7209 12.3005ZM18.1223 13.2304C17.8415 13.5238 17.4997 13.7948 17.0894 14.0401L18.1157 15.7568C18.6637 15.4291 19.15 15.0491 19.5671 14.6133L18.1223 13.2304ZM17.0773 14.0475C16.6022 14.3407 16.1853 14.662 15.8432 15.0173L17.2838 16.4046C17.4833 16.1974 17.7591 15.977 18.1278 15.7494L17.0773 14.0475ZM15.8365 15.0243C15.4689 15.4135 15.1983 15.8692 15.0237 16.3791L16.9158 17.0271C17.0016 16.7767 17.1268 16.5709 17.2905 16.3976L15.8365 15.0243ZM15.021 16.3869C14.8529 16.8915 14.7803 17.466 14.7745 18.0843L16.7744 18.1032C16.779 17.6173 16.8366 17.2648 16.9184 17.0194L15.021 16.3869ZM14.7744 18.0938V18.2969H16.7744V18.0938H14.7744ZM15.7744 17.2969H13.1729V19.2969H15.7744V17.2969ZM14.5322 22.1719C14.33 22.1719 14.1772 22.1112 14.0229 21.9593L12.6197 23.3844C13.1425 23.8992 13.797 24.1719 14.5322 24.1719V22.1719ZM14.0229 21.9593C13.8771 21.8157 13.8135 21.667 13.8135 21.4531H11.8135C11.8135 22.1976 12.0884 22.8613 12.6197 23.3844L14.0229 21.9593ZM13.8135 21.4531C13.8135 21.2563 13.8723 21.1108 14.0229 20.9626L12.6197 19.5374C12.0932 20.0559 11.8135 20.7124 11.8135 21.4531H13.8135ZM14.0229 20.9626C14.1772 20.8106 14.33 20.75 14.5322 20.75V18.75C13.797 18.75 13.1425 19.0227 12.6197 19.5374L14.0229 20.9626ZM14.5322 20.75C14.726 20.75 14.8771 20.8083 15.0337 20.9626L16.437 19.5374C15.9166 19.025 15.2655 18.75 14.5322 18.75V20.75ZM15.0392 20.9679C15.1934 21.1175 15.251 21.2614 15.251 21.4531H17.251C17.251 20.7073 16.9648 20.0492 16.4315 19.5321L15.0392 20.9679ZM15.251 21.4531C15.251 21.5919 15.2185 21.6972 15.1589 21.7934L16.8587 22.8473C17.122 22.4226 17.251 21.9498 17.251 21.4531H15.251ZM15.1513 21.8058C15.0795 21.9255 14.989 22.016 14.8693 22.0878L15.8983 23.8028C16.2995 23.5621 16.6256 23.236 16.8663 22.8348L15.1513 21.8058ZM14.8745 22.0847C14.7819 22.1395 14.6756 22.1719 14.5322 22.1719V24.1719C15.0139 24.1719 15.4753 24.0532 15.8931 23.8059L14.8745 22.0847Z" fill="#53DCFB" mask="url(#path-2-outside-1_227_172)"/>
</svg>
