<svg width="30" height="30" viewBox="0 0 30 30" fill="none" xmlns="http://www.w3.org/2000/svg">
<rect width="30" height="30" rx="15" fill="#1D57EB"/>
<path d="M13.1729 18.2969V18.0937C13.1781 17.151 13.2666 16.401 13.4385 15.8437C13.6156 15.2865 13.8656 14.8385 14.1885 14.5C14.5114 14.1562 14.9046 13.8411 15.3682 13.5547C15.6859 13.3568 15.9697 13.1406 16.2197 12.9062C16.4749 12.6667 16.6755 12.401 16.8213 12.1094C16.9671 11.8125 17.04 11.4818 17.04 11.1172C17.04 10.7057 16.9437 10.349 16.751 10.0469C16.5583 9.74479 16.2979 9.51042 15.9697 9.34375C15.6468 9.17708 15.2848 9.09375 14.8838 9.09375C14.514 9.09375 14.1624 9.17448 13.8291 9.33594C13.501 9.49219 13.2275 9.73177 13.0088 10.0547C12.7952 10.3724 12.6755 10.776 12.6494 11.2656H9.86816C9.89421 10.276 10.1338 9.44792 10.5869 8.78125C11.0452 8.11458 11.6494 7.61458 12.3994 7.28125C13.1546 6.94792 13.988 6.78125 14.8994 6.78125C15.8942 6.78125 16.7692 6.95573 17.5244 7.30469C18.2848 7.65365 18.876 8.15104 19.2979 8.79687C19.7249 9.4375 19.9385 10.1979 19.9385 11.0781C19.9385 11.6719 19.8421 12.2031 19.6494 12.6719C19.4619 13.1406 19.1937 13.5573 18.8447 13.9219C18.4958 14.2865 18.0817 14.612 17.6025 14.8984C17.1807 15.1589 16.8343 15.4297 16.5635 15.7109C16.2979 15.9922 16.0999 16.3229 15.9697 16.7031C15.8447 17.0781 15.7796 17.5417 15.7744 18.0937V18.2969H13.1729ZM14.5322 23.1719C14.0635 23.1719 13.6598 23.0052 13.3213 22.6719C12.9827 22.3385 12.8135 21.9323 12.8135 21.4531C12.8135 20.9844 12.9827 20.5833 13.3213 20.25C13.6598 19.9167 14.0635 19.75 14.5322 19.75C14.9958 19.75 15.3968 19.9167 15.7354 20.25C16.0791 20.5833 16.251 20.9844 16.251 21.4531C16.251 21.7708 16.1702 22.0599 16.0088 22.3203C15.8525 22.5807 15.6442 22.7891 15.3838 22.9453C15.1286 23.0964 14.8447 23.1719 14.5322 23.1719Z" fill="white"/>
</svg>
