<svg width="355" height="175" viewBox="0 0 355 175" fill="none" xmlns="http://www.w3.org/2000/svg">
<path d="M65.4122 118.692C128.523 48.335 195.347 47.9328 199.267 60.5861M65.4122 118.692C72.2082 106.038 76.4244 71.018 98.593 52.4187C114.01 39.4839 140.717 26.1005 160.646 23.3336M65.4122 118.692C72.2082 106.038 34.6409 26.7203 69.7713 11.5364M65.4122 118.692C142.128 79.6226 195.347 135.052 199.267 147.705M65.4122 118.692C61.9608 131.993 44.4465 157.233 2 151.789M199.267 60.5861C155.733 71.4759 40.2514 154.397 98.593 170.846M199.267 60.5861C195.347 47.9328 173.427 26.7904 160.646 23.3336M98.593 170.846C156.935 187.295 176.14 104.145 176.14 104.145C176.14 104.145 177.5 55.1412 216.953 79.6226M98.593 170.846C40.2514 154.397 150.649 152.713 199.267 147.705M295.86 63.3085C295.86 63.3085 193.67 184.668 222.527 127.729C238.358 96.4922 232.093 80.8051 216.953 79.6226M69.7713 11.5364C34.6409 26.7203 183.773 53.8397 160.646 23.3336M69.7713 11.5364C142.59 -3.88947 273.972 -11.8684 216.953 79.6226M199.267 147.705C195.347 135.052 167.723 34.5297 160.646 23.3336M353 12.943L276.814 48.3363L305.384 52.42M353 12.943L313.547 82.3657L305.384 52.42M353 12.943L305.384 52.42" stroke="black" stroke-width="4" stroke-linecap="round" stroke-linejoin="round"/>
</svg>
