<svg width="89" height="58" viewBox="0 0 89 58" fill="none" xmlns="http://www.w3.org/2000/svg">
<path d="M4.15202 41.9339C32.0494 24.505 41.9057 29.4432 43.3467 34.0909M4.15202 41.9339C6.64972 37.2862 14.8729 26.5964 27.7841 21.0192M4.15202 41.9339C6.64972 37.2862 -6.00376 10.0608 6.90742 4.48352M4.15202 41.9339C32.0494 24.505 48.8639 52.2166 50.3048 56.8643M43.3467 34.0909C25.4785 35.9306 -4.89733 41.1206 16.5445 47.1626M43.3467 34.0909C41.9057 29.4432 62.7031 -5.61213 34.8058 11.8168M16.5445 47.1626C37.9862 53.2047 43.3467 44.2578 43.3467 39.0291M16.5445 47.1626C-4.89733 41.1206 32.4367 58.7041 50.3048 56.8643M43.3467 39.0291C57.2762 24.3113 82.4837 0.104423 71.8781 21.0192C61.2725 41.9339 90.3448 11.2852 87.8471 6.92796M43.3467 39.0291C57.2762 24.3113 73.6541 26.2479 63.0485 47.1626C52.4429 68.0774 90.3448 11.2852 87.8471 6.92796M87.8471 6.92796C85.4454 0.246857 40.6953 15.4419 27.7841 21.0192M87.8471 6.92796C85.4454 0.246857 19.8186 -1.09375 6.90742 4.48352M27.7841 21.0192C14.8729 26.5964 37.3035 7.16911 34.8058 11.8168M6.90742 4.48352C-6.00376 10.0608 37.3035 7.16911 34.8058 11.8168M50.3048 56.8643C48.8639 52.2166 62.7031 -5.61213 34.8058 11.8168" stroke="black"/>
</svg>
