<svg width="31" height="31" viewBox="0 0 31 31" fill="none" xmlns="http://www.w3.org/2000/svg">
<path d="M25.9393 15.5C25.9393 21.524 21.182 26.4074 15.3136 26.4074C9.44525 26.4074 4.68799 21.524 4.68799 15.5C4.68799 9.476 9.44525 4.59259 15.3136 4.59259C21.182 4.59259 25.9393 9.476 25.9393 15.5ZM10.0952 15.5C10.0952 18.4585 12.4316 20.8568 15.3136 20.8568C18.1957 20.8568 20.5321 18.4585 20.5321 15.5C20.5321 12.5415 18.1957 10.1432 15.3136 10.1432C12.4316 10.1432 10.0952 12.5415 10.0952 15.5Z" fill="#34C6CD"/>
<path d="M11.5143 3.23505C11.8804 1.35617 13.5263 0 15.4405 0H15.5597C17.4739 0 19.1198 1.35617 19.4859 3.23505L20.3469 7.65432H10.6533L11.5143 3.23505Z" fill="#34C6CD"/>
<path d="M11.5143 27.765C11.8804 29.6438 13.5263 31 15.4405 31H15.5597C17.4739 31 19.1198 29.6438 19.4859 27.765L20.3469 23.3457H10.6533L11.5143 27.765Z" fill="#34C6CD"/>
<path d="M27.8151 18.0665C29.2342 19.3468 29.5838 21.4592 28.651 23.1178L28.5023 23.3822C27.5694 25.0408 25.6124 25.7862 23.8228 25.1648L19.6956 23.7316L24.5424 15.1141L27.8151 18.0665Z" fill="#34C6CD"/>
<path d="M7.17712 5.83523C5.38746 5.21375 3.43048 5.95923 2.49763 7.61781L2.34894 7.88218C1.4161 9.54076 1.76566 11.6532 3.1848 12.9335L6.45749 15.8859L11.3043 7.26841L7.17712 5.83523Z" fill="#34C6CD"/>
<path d="M23.8229 5.83522C25.6125 5.21375 27.5695 5.95923 28.5024 7.61781L28.6511 7.88218C29.5839 9.54077 29.2343 11.6532 27.8152 12.9335L24.5425 15.8859L19.6957 7.26841L23.8229 5.83522Z" fill="#34C6CD"/>
<path d="M3.18491 18.0665C1.76576 19.3468 1.4162 21.4592 2.34905 23.1178L2.49774 23.3822C3.43058 25.0408 5.38756 25.7862 7.17723 25.1648L11.3044 23.7316L6.45759 15.1141L3.18491 18.0665Z" fill="#34C6CD"/>
</svg>
